<svg xmlns="http://www.w3.org/2000/svg" xmlns:xlink="http://www.w3.org/1999/xlink" width="500" zoomAndPan="magnify" viewBox="0 0 375 374.999991" height="500" preserveAspectRatio="xMidYMid meet" version="1.0"><defs><g/><clipPath id="9f10445171"><path d="M 97.484375 187.5 L 193.484375 187.5 L 193.484375 282.75 L 97.484375 282.75 Z M 97.484375 187.5 " clip-rule="nonzero"/></clipPath><clipPath id="d6f4b5d30f"><path d="M 193.296875 187.5 L 289.296875 187.5 L 289.296875 282.75 L 193.296875 282.75 Z M 193.296875 187.5 " clip-rule="nonzero"/></clipPath></defs><rect x="-37.5" width="450" fill="#ffffff" y="-37.499999" height="449.999989" fill-opacity="1"/><rect x="-37.5" width="450" fill="#ffffff" y="-37.499999" height="449.999989" fill-opacity="1"/><rect x="-37.5" width="450" fill="#fffaee" y="-37.499999" height="449.999989" fill-opacity="1"/><g fill="#000000" fill-opacity="0.2196"><g transform="translate(72.886524, 183.653566)"><g><path d="M 73.398438 -23.078125 C 69.632812 -13.472656 64.484375 -5.347656 60.421875 -5.347656 C 58.34375 -5.347656 55.867188 -7.03125 52.992188 -9.113281 C 60.324219 -16.9375 65.671875 -28.527344 65.671875 -42.195312 C 65.671875 -60.519531 55.570312 -70.425781 42.296875 -70.425781 C 26.941406 -70.425781 15.253906 -57.746094 15.253906 -38.035156 C 15.253906 -33.578125 15.75 -29.320312 17.234375 -25.257812 C 17.828125 -23.671875 19.019531 -22.78125 20.304688 -22.78125 C 22.285156 -22.78125 23.671875 -24.269531 23.671875 -26.347656 C 23.671875 -28.03125 22.1875 -33.875 22.1875 -38.136719 C 22.1875 -54.082031 30.210938 -64.1875 42 -64.1875 C 51.902344 -64.1875 58.738281 -56.164062 58.738281 -42.691406 C 58.738281 -30.210938 53.882812 -19.808594 47.742188 -13.175781 C 43.285156 -16.542969 38.234375 -19.613281 32.589844 -19.613281 C 24.761719 -19.613281 20.601562 -14.757812 20.601562 -9.609375 C 20.601562 -4.554688 24.664062 0.792969 33.28125 0.792969 C 38.136719 0.792969 43.386719 -1.1875 48.140625 -4.753906 C 52.003906 -1.78125 55.964844 0.890625 60.125 0.890625 C 68.050781 0.890625 74.089844 -10.003906 78.152344 -21 C 78.351562 -21.59375 78.449219 -22.1875 78.449219 -22.683594 C 78.449219 -24.367188 77.359375 -25.457031 76.171875 -25.457031 C 75.179688 -25.457031 74.089844 -24.761719 73.398438 -23.078125 Z M 27.238281 -9.707031 C 27.238281 -11.6875 29.023438 -13.570312 32.589844 -13.570312 C 36.152344 -13.570312 39.621094 -11.488281 42.988281 -8.914062 C 39.71875 -6.734375 36.351562 -5.449219 33.28125 -5.449219 C 29.21875 -5.449219 27.238281 -7.628906 27.238281 -9.707031 Z M 27.238281 -9.707031 "/></g></g></g><g fill="#000000" fill-opacity="0.2196"><g transform="translate(143.011668, 183.653566)"><g><path d="M 46.457031 -23.078125 C 41.898438 -11.6875 38.828125 -5.84375 36.453125 -5.84375 C 33.976562 -5.84375 32.984375 -9.410156 32.984375 -17.929688 C 32.984375 -22.386719 33.28125 -28.132812 34.570312 -36.453125 C 34.867188 -38.433594 33.480469 -39.917969 31.597656 -39.917969 C 29.714844 -39.917969 28.429688 -38.828125 28.230469 -37.046875 C 27.832031 -33.28125 27.339844 -29.121094 27.042969 -24.863281 C 25.457031 -11.789062 19.316406 -5.84375 13.667969 -5.84375 C 10.300781 -5.84375 8.617188 -7.628906 8.617188 -11.292969 C 8.617188 -17.035156 10.996094 -27.339844 10.996094 -34.570312 C 10.996094 -38.234375 8.121094 -41.402344 4.65625 -41.402344 C 2.773438 -41.402344 1.484375 -40.214844 1.484375 -38.53125 C 1.484375 -35.957031 4.359375 -36.550781 4.359375 -32.785156 C 4.359375 -27.734375 2.082031 -18.523438 2.082031 -10.894531 C 2.082031 -4.160156 6.636719 0.296875 13.175781 0.296875 C 18.722656 0.296875 23.671875 -2.871094 27.339844 -9.609375 C 28.726562 -2.378906 32.09375 0.296875 35.855469 0.296875 C 41.402344 0.296875 45.265625 -5.152344 51.210938 -21 C 51.410156 -21.496094 51.507812 -21.890625 51.507812 -22.285156 C 51.507812 -23.972656 50.21875 -25.058594 48.933594 -25.058594 C 48.039062 -25.058594 47.050781 -24.464844 46.457031 -23.078125 Z M 46.457031 -23.078125 "/></g></g></g><g fill="#000000" fill-opacity="0.2196"><g transform="translate(186.196083, 183.653566)"><g><path d="M 10.003906 -44.671875 C 12.183594 -44.671875 13.867188 -46.355469 13.867188 -48.535156 C 13.867188 -50.714844 12.183594 -52.398438 10.003906 -52.398438 C 7.824219 -52.398438 6.140625 -50.714844 6.140625 -48.535156 C 6.140625 -46.355469 7.824219 -44.671875 10.003906 -44.671875 Z M 13.074219 0.394531 C 19.117188 0.394531 24.269531 -5.941406 29.816406 -21 C 30.011719 -21.496094 30.113281 -21.988281 30.113281 -22.386719 C 30.113281 -24.070312 28.921875 -25.257812 27.636719 -25.257812 C 26.644531 -25.257812 25.65625 -24.566406 25.058594 -23.078125 C 20.207031 -11.09375 17.136719 -5.746094 13.867188 -5.746094 C 11.488281 -5.746094 9.410156 -7.824219 9.410156 -14.859375 C 9.410156 -19.117188 9.90625 -24.367188 11.589844 -35.460938 C 11.984375 -38.035156 10.300781 -39.523438 8.617188 -39.523438 C 7.03125 -39.523438 5.449219 -38.433594 4.953125 -35.757812 C 3.960938 -30.210938 2.871094 -20.601562 2.871094 -15.453125 C 2.871094 -3.863281 7.328125 0.394531 13.074219 0.394531 Z M 13.074219 0.394531 "/></g></g></g><g fill="#000000" fill-opacity="0.2196"><g transform="translate(207.986388, 183.653566)"><g><path d="M 65.472656 -23.078125 C 60.71875 -10.996094 57.945312 -6.140625 55.269531 -6.140625 C 53.785156 -6.140625 52.796875 -7.132812 52.796875 -9.507812 C 52.796875 -15.847656 54.378906 -25.554688 54.378906 -30.210938 C 54.378906 -35.660156 50.714844 -39.324219 45.265625 -39.324219 C 40.414062 -39.324219 36.054688 -36.648438 32.6875 -31.695312 C 31.398438 -34.667969 28.328125 -36.847656 24.269531 -36.847656 C 18.722656 -36.847656 13.570312 -33.480469 9.707031 -26.84375 C 10.101562 -32.09375 10.5 -34.765625 10.5 -35.855469 C 10.5 -38.234375 9.015625 -39.324219 7.429688 -39.324219 C 5.941406 -39.324219 4.257812 -38.136719 4.0625 -36.054688 C 3.269531 -27.734375 2.476562 -16.738281 2.476562 -3.566406 C 2.476562 -1.089844 3.765625 0.199219 5.644531 0.199219 C 7.628906 0.199219 9.015625 -1.089844 9.015625 -3.566406 L 9.015625 -9.113281 C 9.804688 -22.582031 17.828125 -30.707031 23.078125 -30.707031 C 25.554688 -30.707031 26.746094 -29.519531 26.746094 -27.140625 C 26.746094 -23.671875 24.464844 -16.839844 24.464844 -7.328125 C 24.464844 -4.160156 24.566406 0.0976562 28.230469 0.0976562 C 29.816406 0.0976562 31.300781 -0.992188 31.300781 -3.269531 C 31.300781 -4.554688 31.003906 -7.230469 31.003906 -10.203125 C 31.003906 -10.996094 31.003906 -11.6875 31.101562 -12.382812 C 31.695312 -24.269531 38.035156 -33.28125 43.683594 -33.28125 C 46.355469 -33.28125 47.84375 -31.695312 47.84375 -28.625 C 47.84375 -25.257812 46.257812 -16.246094 46.257812 -9.609375 C 46.257812 -3.269531 49.527344 0 54.28125 0 C 60.027344 0 64.679688 -5.941406 70.226562 -21 C 70.425781 -21.496094 70.523438 -21.890625 70.523438 -22.285156 C 70.523438 -23.972656 69.238281 -25.058594 67.949219 -25.058594 C 67.058594 -25.058594 66.066406 -24.464844 65.472656 -23.078125 Z M 65.472656 -23.078125 "/></g></g></g><g fill="#000000" fill-opacity="0.2196"><g transform="translate(270.18778, 183.653566)"><g><path d="M 10.003906 -44.671875 C 12.183594 -44.671875 13.867188 -46.355469 13.867188 -48.535156 C 13.867188 -50.714844 12.183594 -52.398438 10.003906 -52.398438 C 7.824219 -52.398438 6.140625 -50.714844 6.140625 -48.535156 C 6.140625 -46.355469 7.824219 -44.671875 10.003906 -44.671875 Z M 13.074219 0.394531 C 19.117188 0.394531 24.269531 -5.941406 29.816406 -21 C 30.011719 -21.496094 30.113281 -21.988281 30.113281 -22.386719 C 30.113281 -24.070312 28.921875 -25.257812 27.636719 -25.257812 C 26.644531 -25.257812 25.65625 -24.566406 25.058594 -23.078125 C 20.207031 -11.09375 17.136719 -5.746094 13.867188 -5.746094 C 11.488281 -5.746094 9.410156 -7.824219 9.410156 -14.859375 C 9.410156 -19.117188 9.90625 -24.367188 11.589844 -35.460938 C 11.984375 -38.035156 10.300781 -39.523438 8.617188 -39.523438 C 7.03125 -39.523438 5.449219 -38.433594 4.953125 -35.757812 C 3.960938 -30.210938 2.871094 -20.601562 2.871094 -15.453125 C 2.871094 -3.863281 7.328125 0.394531 13.074219 0.394531 Z M 13.074219 0.394531 "/></g></g></g><g fill="#100f0d" fill-opacity="1"><g transform="translate(69.471833, 180.238875)"><g><path d="M 73.398438 -23.078125 C 69.632812 -13.472656 64.484375 -5.347656 60.421875 -5.347656 C 58.34375 -5.347656 55.867188 -7.03125 52.992188 -9.113281 C 60.324219 -16.9375 65.671875 -28.527344 65.671875 -42.195312 C 65.671875 -60.519531 55.570312 -70.425781 42.296875 -70.425781 C 26.941406 -70.425781 15.253906 -57.746094 15.253906 -38.035156 C 15.253906 -33.578125 15.75 -29.320312 17.234375 -25.257812 C 17.828125 -23.671875 19.019531 -22.78125 20.304688 -22.78125 C 22.285156 -22.78125 23.671875 -24.269531 23.671875 -26.347656 C 23.671875 -28.03125 22.1875 -33.875 22.1875 -38.136719 C 22.1875 -54.082031 30.210938 -64.1875 42 -64.1875 C 51.902344 -64.1875 58.738281 -56.164062 58.738281 -42.691406 C 58.738281 -30.210938 53.882812 -19.808594 47.742188 -13.175781 C 43.285156 -16.542969 38.234375 -19.613281 32.589844 -19.613281 C 24.761719 -19.613281 20.601562 -14.757812 20.601562 -9.609375 C 20.601562 -4.554688 24.664062 0.792969 33.28125 0.792969 C 38.136719 0.792969 43.386719 -1.1875 48.140625 -4.753906 C 52.003906 -1.78125 55.964844 0.890625 60.125 0.890625 C 68.050781 0.890625 74.089844 -10.003906 78.152344 -21 C 78.351562 -21.59375 78.449219 -22.1875 78.449219 -22.683594 C 78.449219 -24.367188 77.359375 -25.457031 76.171875 -25.457031 C 75.179688 -25.457031 74.089844 -24.761719 73.398438 -23.078125 Z M 27.238281 -9.707031 C 27.238281 -11.6875 29.023438 -13.570312 32.589844 -13.570312 C 36.152344 -13.570312 39.621094 -11.488281 42.988281 -8.914062 C 39.71875 -6.734375 36.351562 -5.449219 33.28125 -5.449219 C 29.21875 -5.449219 27.238281 -7.628906 27.238281 -9.707031 Z M 27.238281 -9.707031 "/></g></g></g><g fill="#100f0d" fill-opacity="1"><g transform="translate(139.596977, 180.238875)"><g><path d="M 46.457031 -23.078125 C 41.898438 -11.6875 38.828125 -5.84375 36.453125 -5.84375 C 33.976562 -5.84375 32.984375 -9.410156 32.984375 -17.929688 C 32.984375 -22.386719 33.28125 -28.132812 34.570312 -36.453125 C 34.867188 -38.433594 33.480469 -39.917969 31.597656 -39.917969 C 29.714844 -39.917969 28.429688 -38.828125 28.230469 -37.046875 C 27.832031 -33.28125 27.339844 -29.121094 27.042969 -24.863281 C 25.457031 -11.789062 19.316406 -5.84375 13.667969 -5.84375 C 10.300781 -5.84375 8.617188 -7.628906 8.617188 -11.292969 C 8.617188 -17.035156 10.996094 -27.339844 10.996094 -34.570312 C 10.996094 -38.234375 8.121094 -41.402344 4.65625 -41.402344 C 2.773438 -41.402344 1.484375 -40.214844 1.484375 -38.53125 C 1.484375 -35.957031 4.359375 -36.550781 4.359375 -32.785156 C 4.359375 -27.734375 2.082031 -18.523438 2.082031 -10.894531 C 2.082031 -4.160156 6.636719 0.296875 13.175781 0.296875 C 18.722656 0.296875 23.671875 -2.871094 27.339844 -9.609375 C 28.726562 -2.378906 32.09375 0.296875 35.855469 0.296875 C 41.402344 0.296875 45.265625 -5.152344 51.210938 -21 C 51.410156 -21.496094 51.507812 -21.890625 51.507812 -22.285156 C 51.507812 -23.972656 50.21875 -25.058594 48.933594 -25.058594 C 48.039062 -25.058594 47.050781 -24.464844 46.457031 -23.078125 Z M 46.457031 -23.078125 "/></g></g></g><g fill="#100f0d" fill-opacity="1"><g transform="translate(182.781392, 180.238875)"><g><path d="M 10.003906 -44.671875 C 12.183594 -44.671875 13.867188 -46.355469 13.867188 -48.535156 C 13.867188 -50.714844 12.183594 -52.398438 10.003906 -52.398438 C 7.824219 -52.398438 6.140625 -50.714844 6.140625 -48.535156 C 6.140625 -46.355469 7.824219 -44.671875 10.003906 -44.671875 Z M 13.074219 0.394531 C 19.117188 0.394531 24.269531 -5.941406 29.816406 -21 C 30.011719 -21.496094 30.113281 -21.988281 30.113281 -22.386719 C 30.113281 -24.070312 28.921875 -25.257812 27.636719 -25.257812 C 26.644531 -25.257812 25.65625 -24.566406 25.058594 -23.078125 C 20.207031 -11.09375 17.136719 -5.746094 13.867188 -5.746094 C 11.488281 -5.746094 9.410156 -7.824219 9.410156 -14.859375 C 9.410156 -19.117188 9.90625 -24.367188 11.589844 -35.460938 C 11.984375 -38.035156 10.300781 -39.523438 8.617188 -39.523438 C 7.03125 -39.523438 5.449219 -38.433594 4.953125 -35.757812 C 3.960938 -30.210938 2.871094 -20.601562 2.871094 -15.453125 C 2.871094 -3.863281 7.328125 0.394531 13.074219 0.394531 Z M 13.074219 0.394531 "/></g></g></g><g fill="#100f0d" fill-opacity="1"><g transform="translate(204.571697, 180.238875)"><g><path d="M 65.472656 -23.078125 C 60.71875 -10.996094 57.945312 -6.140625 55.269531 -6.140625 C 53.785156 -6.140625 52.796875 -7.132812 52.796875 -9.507812 C 52.796875 -15.847656 54.378906 -25.554688 54.378906 -30.210938 C 54.378906 -35.660156 50.714844 -39.324219 45.265625 -39.324219 C 40.414062 -39.324219 36.054688 -36.648438 32.6875 -31.695312 C 31.398438 -34.667969 28.328125 -36.847656 24.269531 -36.847656 C 18.722656 -36.847656 13.570312 -33.480469 9.707031 -26.84375 C 10.101562 -32.09375 10.5 -34.765625 10.5 -35.855469 C 10.5 -38.234375 9.015625 -39.324219 7.429688 -39.324219 C 5.941406 -39.324219 4.257812 -38.136719 4.0625 -36.054688 C 3.269531 -27.734375 2.476562 -16.738281 2.476562 -3.566406 C 2.476562 -1.089844 3.765625 0.199219 5.644531 0.199219 C 7.628906 0.199219 9.015625 -1.089844 9.015625 -3.566406 L 9.015625 -9.113281 C 9.804688 -22.582031 17.828125 -30.707031 23.078125 -30.707031 C 25.554688 -30.707031 26.746094 -29.519531 26.746094 -27.140625 C 26.746094 -23.671875 24.464844 -16.839844 24.464844 -7.328125 C 24.464844 -4.160156 24.566406 0.0976562 28.230469 0.0976562 C 29.816406 0.0976562 31.300781 -0.992188 31.300781 -3.269531 C 31.300781 -4.554688 31.003906 -7.230469 31.003906 -10.203125 C 31.003906 -10.996094 31.003906 -11.6875 31.101562 -12.382812 C 31.695312 -24.269531 38.035156 -33.28125 43.683594 -33.28125 C 46.355469 -33.28125 47.84375 -31.695312 47.84375 -28.625 C 47.84375 -25.257812 46.257812 -16.246094 46.257812 -9.609375 C 46.257812 -3.269531 49.527344 0 54.28125 0 C 60.027344 0 64.679688 -5.941406 70.226562 -21 C 70.425781 -21.496094 70.523438 -21.890625 70.523438 -22.285156 C 70.523438 -23.972656 69.238281 -25.058594 67.949219 -25.058594 C 67.058594 -25.058594 66.066406 -24.464844 65.472656 -23.078125 Z M 65.472656 -23.078125 "/></g></g></g><g fill="#100f0d" fill-opacity="1"><g transform="translate(266.773089, 180.238875)"><g><path d="M 10.003906 -44.671875 C 12.183594 -44.671875 13.867188 -46.355469 13.867188 -48.535156 C 13.867188 -50.714844 12.183594 -52.398438 10.003906 -52.398438 C 7.824219 -52.398438 6.140625 -50.714844 6.140625 -48.535156 C 6.140625 -46.355469 7.824219 -44.671875 10.003906 -44.671875 Z M 13.074219 0.394531 C 19.117188 0.394531 24.269531 -5.941406 29.816406 -21 C 30.011719 -21.496094 30.113281 -21.988281 30.113281 -22.386719 C 30.113281 -24.070312 28.921875 -25.257812 27.636719 -25.257812 C 26.644531 -25.257812 25.65625 -24.566406 25.058594 -23.078125 C 20.207031 -11.09375 17.136719 -5.746094 13.867188 -5.746094 C 11.488281 -5.746094 9.410156 -7.824219 9.410156 -14.859375 C 9.410156 -19.117188 9.90625 -24.367188 11.589844 -35.460938 C 11.984375 -38.035156 10.300781 -39.523438 8.617188 -39.523438 C 7.03125 -39.523438 5.449219 -38.433594 4.953125 -35.757812 C 3.960938 -30.210938 2.871094 -20.601562 2.871094 -15.453125 C 2.871094 -3.863281 7.328125 0.394531 13.074219 0.394531 Z M 13.074219 0.394531 "/></g></g></g><g clip-path="url(#9f10445171)"><path fill="#231f20" d="M 190.089844 187.871094 C 189.796875 187.761719 189.472656 187.699219 189.105469 187.699219 C 166.359375 187.699219 143.617188 187.699219 120.871094 187.699219 C 114.445312 187.699219 108.019531 187.699219 101.59375 187.699219 C 100.460938 187.699219 99.695312 188.269531 99.296875 189.039062 C 98.300781 189.34375 97.484375 190.171875 97.484375 191.527344 C 97.484375 214.21875 97.484375 236.90625 97.484375 259.597656 C 97.484375 265.957031 97.484375 272.316406 97.484375 278.675781 C 97.484375 279.453125 97.753906 280.054688 98.171875 280.484375 C 98.351562 281.667969 99.214844 282.722656 100.761719 282.722656 C 123.679688 282.722656 146.601562 282.722656 169.519531 282.722656 C 176.050781 282.722656 182.578125 282.722656 189.105469 282.722656 C 189.859375 282.722656 190.453125 282.46875 190.882812 282.074219 C 192.207031 282.027344 193.492188 281.15625 193.492188 279.453125 C 193.492188 256.289062 193.492188 233.125 193.492188 209.960938 C 193.492188 203.445312 193.492188 196.933594 193.492188 190.417969 C 193.492188 188.375 191.632812 187.523438 190.089844 187.871094 Z M 120.34375 277.292969 C 114.539062 277.292969 108.730469 277.292969 102.925781 277.292969 C 102.925781 255.0625 102.925781 232.832031 102.925781 210.605469 C 102.925781 204.78125 102.925781 198.957031 102.925781 193.132812 C 125.226562 193.132812 147.527344 193.132812 169.828125 193.132812 C 175.902344 193.132812 181.976562 193.132812 188.050781 193.132812 C 188.050781 215.390625 188.050781 237.648438 188.050781 259.910156 C 188.050781 265.703125 188.050781 271.496094 188.050781 277.292969 C 165.480469 277.292969 142.914062 277.292969 120.34375 277.292969 Z M 120.34375 277.292969 " fill-opacity="1" fill-rule="nonzero"/></g><path fill="#231f20" d="M 114.6875 205.242188 C 113.179688 205.394531 111.667969 205.542969 110.160156 205.695312 C 111.519531 204.296875 112.550781 202.550781 112.832031 200.785156 C 113.0625 199.363281 112.675781 197.585938 111.25 196.914062 C 109.699219 196.179688 107.871094 197.472656 106.652344 198.351562 C 105.527344 199.164062 106.613281 201.050781 107.753906 200.226562 C 108.226562 199.886719 109.8125 198.605469 110.390625 198.941406 C 111.261719 199.453125 110.472656 201.320312 110.15625 201.902344 C 109.226562 203.640625 107.75 205.40625 105.871094 206.132812 C 104.828125 206.535156 104.835938 208.398438 106.160156 208.265625 C 109.003906 207.984375 111.84375 207.699219 114.6875 207.414062 C 116.070312 207.277344 116.082031 205.101562 114.6875 205.242188 Z M 114.6875 205.242188 " fill-opacity="1" fill-rule="nonzero"/><path fill="#231f20" d="M 120.386719 205.628906 C 121.957031 204.695312 122.597656 202.003906 122.53125 200.320312 C 122.457031 198.335938 121.023438 196.429688 118.898438 196.515625 C 118.765625 196.519531 118.644531 196.546875 118.539062 196.585938 C 118.238281 196.609375 117.953125 196.769531 117.753906 197.109375 C 116.710938 198.917969 115.855469 201.285156 116.28125 203.398438 C 116.644531 205.207031 118.609375 206.6875 120.386719 205.628906 Z M 120.328125 200.933594 C 120.265625 201.519531 119.96875 203.46875 119.28125 203.742188 C 118.242188 204.15625 118.347656 202.050781 118.425781 201.539062 C 118.570312 200.558594 118.898438 199.625 119.34375 198.742188 C 120.191406 198.996094 120.417969 200.089844 120.328125 200.933594 Z M 120.328125 200.933594 " fill-opacity="1" fill-rule="nonzero"/><path fill="#231f20" d="M 146.933594 247.378906 C 145.363281 247.378906 144.335938 248.625 144.214844 250.09375 C 144.1875 250.390625 144.125 250.871094 143.976562 251.453125 C 143.902344 251.746094 143.816406 252.035156 143.722656 252.320312 C 143.738281 252.265625 143.464844 253.011719 143.53125 252.863281 C 143.121094 253.824219 142.398438 254.96875 141.914062 255.546875 C 140.476562 257.261719 138.613281 258.617188 136.683594 259.28125 C 132.402344 260.75 127.566406 259.511719 124.128906 256.453125 C 120.121094 252.886719 118.6875 247.523438 118.890625 242.191406 C 119.074219 237.230469 120.800781 232.03125 124.488281 228.488281 C 128.144531 224.96875 133.996094 223.617188 138.390625 225.960938 C 139.6875 226.652344 141.351562 226.285156 142.113281 224.988281 C 142.832031 223.753906 142.4375 221.964844 141.136719 221.269531 C 135.417969 218.222656 128.167969 219.007812 122.945312 222.757812 C 117.320312 226.792969 114.417969 233.257812 113.621094 239.984375 C 112.8125 246.789062 114.421875 254.191406 119.230469 259.273438 C 123.648438 263.945312 130.476562 266.382812 136.816406 264.894531 C 143.738281 263.273438 149.074219 257.144531 149.652344 250.09375 C 149.773438 248.628906 148.316406 247.378906 146.933594 247.378906 Z M 146.933594 247.378906 " fill-opacity="1" fill-rule="nonzero"/><path fill="#231f20" d="M 170.039062 254.683594 C 168.984375 250.09375 168.183594 245.453125 167.691406 240.765625 C 167.621094 240.257812 167.464844 239.773438 167.21875 239.355469 C 167.082031 238.433594 166.496094 237.59375 165.332031 237.261719 C 161.722656 236.230469 157.464844 236.433594 154.644531 239.179688 C 151.714844 242.03125 150.550781 247.414062 152.808594 250.96875 C 155.191406 254.71875 160.339844 255.320312 163.335938 251.957031 C 163.496094 251.773438 163.652344 251.585938 163.804688 251.390625 C 164.105469 252.976562 164.433594 254.554688 164.792969 256.128906 C 165.125 257.558594 166.765625 258.402344 168.140625 258.023438 C 169.609375 257.621094 170.371094 256.117188 170.039062 254.683594 Z M 159.054688 248.566406 C 159.195312 248.445312 158.535156 248.820312 158.667969 248.832031 C 158.183594 248.886719 157.613281 248.503906 157.34375 247.960938 C 156.550781 246.351562 157.4375 243.828125 158.722656 242.808594 C 159.175781 242.449219 160.179688 242.15625 160.804688 242.117188 C 161.371094 242.082031 161.824219 242.089844 162.261719 242.144531 C 162.054688 244.078125 160.945312 245.871094 159.910156 247.5 C 159.585938 248.011719 159.480469 248.191406 159.054688 248.566406 Z M 159.054688 248.566406 " fill-opacity="1" fill-rule="nonzero"/><g clip-path="url(#d6f4b5d30f)"><path fill="#3a3637" d="M 285.902344 187.871094 C 285.609375 187.761719 285.285156 187.703125 284.917969 187.703125 L 197.40625 187.703125 C 196.273438 187.703125 195.511719 188.269531 195.109375 189.039062 C 194.109375 189.347656 193.296875 190.171875 193.296875 191.527344 L 193.296875 278.675781 C 193.296875 279.453125 193.566406 280.054688 193.980469 280.484375 C 194.164062 281.667969 195.027344 282.722656 196.574219 282.722656 L 284.917969 282.722656 C 285.671875 282.722656 286.265625 282.46875 286.695312 282.070312 C 288.015625 282.027344 289.304688 281.15625 289.304688 279.453125 L 289.304688 190.417969 C 289.304688 188.371094 287.445312 187.523438 285.902344 187.871094 Z M 283.863281 277.292969 L 198.738281 277.292969 L 198.738281 193.132812 L 283.863281 193.132812 Z M 283.863281 277.292969 " fill-opacity="1" fill-rule="nonzero"/></g><path fill="#ffaa91" d="M 198.738281 193.132812 L 198.738281 277.292969 L 283.863281 277.292969 L 283.863281 193.132812 Z M 208.535156 202.59375 C 209.222656 203.375 209.507812 204.5625 208.9375 205.488281 C 208.230469 206.632812 206.832031 206.558594 205.652344 206.566406 C 204.605469 206.574219 203.257812 206.726562 202.449219 205.882812 C 201.164062 204.535156 202.714844 202.96875 204.234375 201.832031 C 203.421875 200.777344 203.027344 199.472656 203.460938 198.070312 C 204.046875 196.167969 206.417969 194.679688 208.292969 195.824219 C 210.273438 197.035156 209.632812 200.285156 208.730469 201.953125 C 208.621094 202.15625 208.480469 202.292969 208.324219 202.378906 C 208.398438 202.445312 208.46875 202.519531 208.535156 202.59375 Z M 250.675781 260.242188 C 242.941406 267.355469 230.425781 268.128906 221.957031 261.84375 C 217.679688 258.667969 214.511719 254.207031 212.960938 249.105469 C 211.230469 243.390625 212.039062 237.328125 213.664062 231.683594 C 215.203125 226.347656 217.722656 220.925781 222 217.226562 C 226.34375 213.472656 232.167969 211.492188 237.855469 212.898438 C 238.703125 213.105469 239.25 213.589844 239.539062 214.183594 C 242.5 214.65625 245.382812 215.46875 248.035156 216.902344 C 253.738281 219.984375 256.640625 225.816406 257.871094 231.953125 C 259.816406 241.6875 258.332031 253.203125 250.675781 260.242188 Z M 250.675781 260.242188 " fill-opacity="1" fill-rule="nonzero"/><path fill="#3a3637" d="M 208.324219 202.378906 C 208.480469 202.292969 208.621094 202.15625 208.730469 201.953125 C 209.632812 200.285156 210.273438 197.035156 208.292969 195.824219 C 206.417969 194.679688 204.046875 196.167969 203.460938 198.070312 C 203.027344 199.472656 203.421875 200.777344 204.234375 201.832031 C 202.714844 202.96875 201.164062 204.535156 202.449219 205.882812 C 203.257812 206.726562 204.605469 206.574219 205.652344 206.566406 C 206.832031 206.558594 208.230469 206.632812 208.9375 205.488281 C 209.507812 204.5625 209.222656 203.375 208.535156 202.59375 C 208.46875 202.519531 208.398438 202.445312 208.324219 202.378906 Z M 206.625 204.386719 C 206.132812 204.449219 205.394531 204.269531 204.824219 204.3125 C 204.9375 204.195312 205.039062 204.070312 205.125 204 C 205.382812 203.777344 205.652344 203.5625 205.921875 203.351562 C 205.960938 203.375 206 203.402344 206.039062 203.421875 C 206.417969 203.652344 207.585938 204.269531 206.625 204.386719 Z M 206.996094 200.53125 C 206.71875 200.378906 206.367188 200.367188 206.011719 200.609375 C 206.007812 200.613281 206 200.617188 205.996094 200.621094 C 205.917969 200.527344 205.851562 200.429688 205.785156 200.320312 C 205.28125 199.4375 205.394531 197.734375 206.714844 197.628906 C 207.871094 197.535156 207.363281 199.597656 206.996094 200.53125 Z M 206.996094 200.53125 " fill-opacity="1" fill-rule="nonzero"/><path fill="#ffaa91" d="M 206.996094 200.53125 C 206.71875 200.378906 206.367188 200.367188 206.011719 200.609375 C 206.007812 200.613281 206 200.617188 205.996094 200.621094 C 205.917969 200.527344 205.851562 200.429688 205.785156 200.320312 C 205.28125 199.4375 205.394531 197.734375 206.714844 197.628906 C 207.871094 197.535156 207.363281 199.597656 206.996094 200.53125 Z M 206.996094 200.53125 " fill-opacity="1" fill-rule="nonzero"/><path fill="#ffaa91" d="M 206.625 204.386719 C 206.132812 204.449219 205.394531 204.269531 204.824219 204.3125 C 204.9375 204.195312 205.039062 204.070312 205.125 204 C 205.382812 203.777344 205.652344 203.5625 205.921875 203.351562 C 205.960938 203.375 206 203.402344 206.039062 203.421875 C 206.417969 203.652344 207.585938 204.269531 206.625 204.386719 Z M 206.625 204.386719 " fill-opacity="1" fill-rule="nonzero"/><path fill="#3a3637" d="M 257.871094 231.953125 C 256.640625 225.816406 253.738281 219.984375 248.035156 216.902344 C 245.382812 215.46875 242.5 214.65625 239.539062 214.183594 C 239.25 213.589844 238.703125 213.105469 237.855469 212.898438 C 232.167969 211.492188 226.34375 213.472656 222 217.226562 C 217.722656 220.925781 215.203125 226.347656 213.664062 231.683594 C 212.039062 237.328125 211.230469 243.390625 212.960938 249.105469 C 214.511719 254.207031 217.679688 258.667969 221.957031 261.84375 C 230.425781 268.128906 242.941406 267.355469 250.675781 260.242188 C 258.332031 253.203125 259.816406 241.6875 257.871094 231.953125 Z M 249.265625 253.648438 C 244.71875 260.234375 235.15625 262.597656 227.976562 259.144531 C 224.203125 257.332031 221.355469 254.417969 219.445312 250.71875 C 218.53125 248.953125 217.882812 246.96875 217.5625 244.855469 C 217.472656 244.261719 217.398438 242.898438 217.410156 242.007812 C 217.421875 240.589844 217.558594 239.179688 217.808594 237.78125 C 218.738281 232.648438 220.414062 227.097656 223.871094 223.0625 C 225.503906 221.15625 227.585938 219.597656 229.851562 218.695312 C 230.175781 218.847656 230.546875 218.9375 230.972656 218.949219 C 235.441406 219.0625 239.742188 219.246094 243.914062 220.929688 C 245.546875 221.589844 247.25 222.6875 248.539062 224.058594 C 250.007812 225.617188 250.980469 227.605469 251.644531 229.625 C 254.21875 237.417969 254.011719 246.777344 249.265625 253.648438 Z M 249.265625 253.648438 " fill-opacity="1" fill-rule="nonzero"/><path fill="#ffaa91" d="M 249.265625 253.648438 C 244.71875 260.234375 235.15625 262.597656 227.976562 259.144531 C 224.203125 257.332031 221.355469 254.417969 219.445312 250.71875 C 218.53125 248.953125 217.882812 246.96875 217.5625 244.855469 C 217.472656 244.261719 217.398438 242.898438 217.410156 242.007812 C 217.421875 240.589844 217.558594 239.179688 217.808594 237.78125 C 218.738281 232.648438 220.414062 227.097656 223.871094 223.0625 C 225.503906 221.15625 227.585938 219.597656 229.851562 218.695312 C 230.175781 218.847656 230.546875 218.9375 230.972656 218.949219 C 235.441406 219.0625 239.742188 219.246094 243.914062 220.929688 C 245.546875 221.589844 247.25 222.6875 248.539062 224.058594 C 250.007812 225.617188 250.980469 227.605469 251.644531 229.625 C 254.21875 237.417969 254.011719 246.777344 249.265625 253.648438 Z M 249.265625 253.648438 " fill-opacity="1" fill-rule="nonzero"/></svg>